<svg xmlns="http://www.w3.org/2000/svg" viewBox="0 0 349.53 91.75"><defs><style>.cls-1,.cls-2{fill:#68c39b;}.cls-1{fill-rule:evenodd;}</style></defs><title>Asset 3</title><g id="Layer_2" data-name="Layer 2"><g id="Layer_1-2" data-name="Layer 1"><path class="cls-1" d="M69.1,37.68,72.83,34a4.32,4.32,0,0,0,4.34.17,29,29,0,0,1,5.35,12.62,4.21,4.21,0,0,0-1.7,1A4.33,4.33,0,0,0,82.69,55,28.91,28.91,0,0,1,77,69.1a4.33,4.33,0,0,0-5.84,5.77,28.84,28.84,0,0,1-14,5.49A4.34,4.34,0,0,0,50,78.62a4.29,4.29,0,0,0-1,1.53,28.82,28.82,0,0,1-12.59-5.37,4.32,4.32,0,0,0-.15-4.26l3.47-3.47A20.79,20.79,0,0,0,69.1,37.68ZM78.79,28a4.34,4.34,0,0,1-.06,4.72,31.05,31.05,0,0,1,5.89,13.88,4.22,4.22,0,0,1,2.31,1.2,4.33,4.33,0,0,1,0,6.12,4.27,4.27,0,0,1-2.14,1.16,31.12,31.12,0,0,1-6.23,15.42,4.32,4.32,0,0,1-6.07,6,31,31,0,0,1-15.19,6,4.32,4.32,0,0,1-8.54-.22A30.92,30.92,0,0,1,35,76.35a4.33,4.33,0,0,1-4.71.12l-4.26,4.26A40.13,40.13,0,0,0,82.78,24ZM39,36.92a20.57,20.57,0,0,1,2.59-2.19l-2.63-4a4.32,4.32,0,1,1,1.82-1.17l2.63,4a20.8,20.8,0,0,1,9.1-2.69h0q.49,0,1,0h.19c.33,0,.66,0,1,0L55.91,8.57a4.33,4.33,0,1,0-2.16-.13l-.17,3.07a40.19,40.19,0,0,0-36.67,24l18,7.16A20.69,20.69,0,0,1,39,36.92ZM17.88,58.5,33.16,55a21,21,0,0,1,.44-8.74c0-.14.07-.29.11-.43s.17-.56.27-.84c0-.11.07-.22.11-.33L8.62,34.52a4.34,4.34,0,1,0-.81,2l7.6,3a40.39,40.39,0,0,0-1.6,16.59A4.33,4.33,0,0,1,17.88,58.5Zm53.51-26a4.32,4.32,0,0,1,5.9-5.9l4-4A39.87,39.87,0,0,0,57.87,11.73L56.78,31.07a20.66,20.66,0,0,1,10.85,5.14ZM28.85,75a4.32,4.32,0,0,1,5.92-5.92l3.49-3.49a20.75,20.75,0,0,1-4.63-8.46L18.35,60.61a4.33,4.33,0,0,1-2.69,3.87,40,40,0,0,0,8.92,14.78Z"/><path class="cls-2" d="M115.46,56.12a8.51,8.51,0,0,1,0,12.05,8.52,8.52,0,0,1-6.19,2.35A8.82,8.82,0,0,1,103,68.17a8.17,8.17,0,0,1-2.5-6A9,9,0,0,1,103,56.14a9.45,9.45,0,0,1,12.45,0Zm-9.72,2.45a4.91,4.91,0,0,0-1.41,3.62,4.79,4.79,0,0,0,1.46,3.6,4.71,4.71,0,0,0,3.43,1.32,4.73,4.73,0,0,0,5-4.94,5,5,0,0,0-1.39-3.6,5.15,5.15,0,0,0-3.53-1.37A4.92,4.92,0,0,0,105.74,58.57Z"/><path class="cls-2" d="M135.93,54.15A5.74,5.74,0,0,1,140,55.54a4.84,4.84,0,0,1,1.39,3.58,4.38,4.38,0,0,1-1.25,3.26,5,5,0,0,1-2.23,1.23l4.92,6.55h-4.52L134,63.85v6.31h-3.69v-16ZM134,61.42h.84a3,3,0,0,0,2.21-.69,2.15,2.15,0,0,0,.6-1.56,2,2,0,0,0-.74-1.64,3.65,3.65,0,0,0-2-.5H134Z"/><path class="cls-2" d="M166.06,69.65a7.47,7.47,0,0,1-3.53.87,8.58,8.58,0,0,1-6.29-2.33,8.57,8.57,0,0,1,0-12.1,8.54,8.54,0,0,1,6-2.3,9.59,9.59,0,0,1,3.84.89V59a5.1,5.1,0,0,0-3.75-1.7,4.51,4.51,0,0,0-3.26,1.24,5.13,5.13,0,0,0-1.51,3.7,4.82,4.82,0,0,0,1.39,3.53,4.87,4.87,0,0,0,3.45,1.34,5.07,5.07,0,0,0,3.68-1.65Z"/><path class="cls-2" d="M182.3,60.25h6.39v-6.1h3.69v16h-3.69V63.37H182.3v6.79h-3.69v-16h3.69Z"/><path class="cls-2" d="M214.54,57.27h-5.36v3.1h5.09v3.12h-5.09V67h5.36v3.12h-9v-16h9Z"/><path class="cls-2" d="M235.39,58.06a3.89,3.89,0,0,0-2.69-1.15,2,2,0,0,0-1.56.55,1.43,1.43,0,0,0-.41,1,1.14,1.14,0,0,0,.36.89,6.6,6.6,0,0,0,2,.91l1.2.46A6.38,6.38,0,0,1,236.5,62a4,4,0,0,1,1.17,3,5.76,5.76,0,0,1-1.42,4,6.22,6.22,0,0,1-4.53,1.63,6.85,6.85,0,0,1-3.17-.67,10.17,10.17,0,0,1-2.35-1.76l1.92-2.64a9.81,9.81,0,0,0,1.49,1.23,3.73,3.73,0,0,0,2,.57,2.53,2.53,0,0,0,1.68-.55,1.65,1.65,0,0,0,.58-1.29,1.44,1.44,0,0,0-.55-1.16,7.61,7.61,0,0,0-1.88-.88l-1.32-.46a5.42,5.42,0,0,1-2.23-1.27,4,4,0,0,1-1-2.79,4.94,4.94,0,0,1,1.39-3.6,5.17,5.17,0,0,1,4-1.46,7.76,7.76,0,0,1,4.76,1.58Z"/><path class="cls-2" d="M255.55,57.27V70.16h-3.7V57.27h-3.48V54.15H259v3.12Z"/><path class="cls-2" d="M276.19,54.15a5.73,5.73,0,0,1,4.08,1.39,4.84,4.84,0,0,1,1.39,3.58,4.34,4.34,0,0,1-1.25,3.26,5,5,0,0,1-2.23,1.23l4.92,6.55h-4.51l-4.32-6.31v6.31h-3.7v-16Zm-1.92,7.27h.84a3.05,3.05,0,0,0,2.21-.69,2.19,2.19,0,0,0,.6-1.56,1.93,1.93,0,0,0-.75-1.64,3.62,3.62,0,0,0-2-.5h-.86Z"/><path class="cls-2" d="M304.41,67.13h-6l-1.23,3H293.3l6.46-16h3.38l6.31,16h-3.84Zm-1-2.83-2-5.37-2,5.37Z"/><path class="cls-2" d="M325.46,57.27V70.16h-3.69V57.27h-3.48V54.15h10.65v3.12Z"/><path class="cls-2" d="M349.53,57.27h-5.35v3.1h5.09v3.12h-5.09V67h5.35v3.12h-9v-16h9Z"/><path class="cls-2" d="M106.64,33.22h-4.83V45.88h2.27V41.45h2.56a4,4,0,0,0,2.87-1.17,4.12,4.12,0,0,0,0-5.91A4.13,4.13,0,0,0,106.64,33.22Zm-.11,6.18h-2.45V35.27h2.45a2.07,2.07,0,0,1,0,4.13Z"/><polygon class="cls-2" points="118.69 40.34 124.12 40.34 124.12 38.29 118.69 38.29 118.69 35.27 124.48 35.27 124.48 33.22 116.42 33.22 116.42 45.88 124.61 45.88 124.61 43.83 118.69 43.83 118.69 40.34"/><path class="cls-2" d="M136.09,40.63h3.52V43a4.37,4.37,0,0,1-3,1.09,4.49,4.49,0,1,1,0-9,4.41,4.41,0,0,1,3.19,1.23l1.51-1.38a6.38,6.38,0,0,0-4.7-1.91,6.67,6.67,0,0,0-4.78,1.87,6.63,6.63,0,0,0,0,9.37,6.93,6.93,0,0,0,9.95-.52V38.61h-5.67Z"/><path class="cls-2" d="M169.08,38.5l-.74-.29-.65-.25a10.55,10.55,0,0,1-.95-.49,1.37,1.37,0,0,1-.52-1.09c0-.78.72-1.34,1.72-1.34a2.51,2.51,0,0,1,2.25,1.12l1.62-1.1A4.34,4.34,0,0,0,167.9,33a4.18,4.18,0,0,0-2.79,1,3.35,3.35,0,0,0-.06,5,8.38,8.38,0,0,0,2.56,1.34,7.41,7.41,0,0,1,1.86.87,1.41,1.41,0,0,1,.72,1.29c0,.82-.56,1.66-2.14,1.66a3.31,3.31,0,0,1-3.18-1.93l-1.71,1.07A5,5,0,0,0,168,46.1c2.89,0,4.43-1.51,4.43-3.74a3.18,3.18,0,0,0-.8-2.27A7.45,7.45,0,0,0,169.08,38.5Z"/><polygon class="cls-2" points="181.99 38.8 178.74 33.22 176.28 33.22 180.84 40.98 180.84 45.88 183.09 45.88 183.09 40.98 187.65 33.22 185.22 33.22 181.99 38.8"/><path class="cls-2" d="M199.93,40.08a7.24,7.24,0,0,0-2.57-1.58l-.75-.29L196,38a10.55,10.55,0,0,1-1-.49,1.4,1.4,0,0,1-.52-1.09c0-.78.72-1.34,1.72-1.34a2.51,2.51,0,0,1,2.25,1.12l1.62-1.1a4.33,4.33,0,0,0-3.9-2.06,4.19,4.19,0,0,0-2.8,1,3.1,3.1,0,0,0-1.13,2.47,3,3,0,0,0,1.08,2.49,8.15,8.15,0,0,0,2.56,1.34,7.49,7.49,0,0,1,1.85.87,1.41,1.41,0,0,1,.72,1.29c0,.82-.56,1.66-2.14,1.66a3.29,3.29,0,0,1-3.17-1.93l-1.71,1.07a5,5,0,0,0,4.86,2.89c2.89,0,4.43-1.51,4.43-3.74A3.22,3.22,0,0,0,199.93,40.08Z"/><polygon class="cls-2" points="151.9 33.22 146.62 45.88 149.01 45.88 150.78 41.48 150.75 41.48 152.86 36.33 154.97 41.48 154.94 41.48 156.71 45.88 159.11 45.88 153.82 33.22 151.9 33.22"/></g></g></svg>